DataRate=2000.000000
DataType=double
version=3
OpenSimVersion=4.3-2021-08-27-4bc7ad9
endheader
time	f1_1	f1_2	f1_3	p1_1	p1_2	p1_3	m1_1	m1_2	m1_3	f2_1	f2_2	f2_3	p2_1	p2_2	p2_3	m2_1	m2_2	m2_3	f3_1	f3_2	f3_3	p3_1	p3_2	p3_3	m3_1	m3_2	m3_3	f4_1	f4_2	f4_3	p4_1	p4_2	p4_3	m4_1	m4_2	m4_3
3.041	-0	0	0	-300	2252	0	0	0	0	-4.03850269317627	-56.59780883789062	393.795654296875	-300	1351	0	-93332.171875	40036.171875	947.1846923828125	6.144917357952856	57.52119091191347	415.3292236328125	-300	450.0000000000007	0	84143.98211309234	51746.41774055029	-6610.5537109375	-0	0	0	305	450.0000000000007	0	0	0	0
3.0415	-0	0	0	-300	2252	0	0	0	0	-4.05561351776123	-56.5257682800293	394.17626953125	-300	1351	0	-93302.1796875	40122.875	947.2388916015625	6.138110506776488	57.53818920263156	415.839599609375	-300	450.0000000000007	0	83987.81805615718	51619.10913997414	-6561.47412109375	-0	0	0	305	450.0000000000007	0	0	0	0
3.042	-0	0	0	-300	2252	0	0	0	0	-4.02151346206665	-56.47465896606445	394.8273315429688	-300	1351	0	-93478.21875	40120.35546875	947.2891235351562	6.063161726811106	57.36148860731443	415.9336853027344	-300	450.0000000000007	0	84003.43524279149	51638.91382815679	-6588.83447265625	-0	0	0	305	450.0000000000007	0	0	0	0
3.0425	-0	0	0	-300	2252	0	0	0	0	-4.185885906219482	-56.88922882080078	393.4147338867188	-300	1351	0	-93471.078125	40051.7578125	962.6797485351562	6.315472956956626	57.35142926165385	416.0005798339844	-300	450.0000000000007	0	83881.18524085965	51683.10913531308	-6553.66943359375	-0	0	0	305	450.0000000000007	0	0	0	0
3.043	-0	0	0	-300	2252	0	0	0	0	-3.853122472763062	-56.88225555419922	392.8589172363281	-300	1351	0	-93465.2421875	39817.76953125	981.8375854492188	6.144934039531399	57.6978495422853	415.6784973144531	-300	450.0000000000007	0	84110.81023858632	51735.1169578503	-6551.16357421875	-0	0	0	305	450.0000000000007	0	0	0	0
3.0435	-0	0	0	-300	2252	0	0	0	0	-3.801862716674805	-56.61488342285156	393.4826354980469	-300	1351	0	-93320.1484375	39814.2578125	925.8688354492188	6.18586812775364	57.64348629334216	416.0007019042969	-300	450.0000000000007	0	84085.16180187311	51717.11695672917	-6478.1962890625	-0	0	0	305	450.0000000000007	0	0	0	0
3.044	-0	0	0	-300	2252	0	0	0	0	-4.216924667358398	-56.49157333374023	392.342529296875	-300	1351	0	-93343.7421875	39918.765625	931.4720458984375	6.121041648169324	57.43963649802804	415.5844116210938	-300	450.0000000000007	0	83880.63055220146	51709.60522903883	-6480.47705078125	-0	0	0	305	450.0000000000007	0	0	0	0
3.0445	-0	0	0	-300	2252	0	0	0	0	-4.258081912994385	-56.5909309387207	393.2928771972656	-300	1351	0	-93354.984375	40151.296875	904.3997192382812	6.049436435796861	57.5960390827887	415.7456359863281	-300	450.0000000000007	0	83907.14617604994	51735.94898019786	-6537.4453125	-0	0	0	305	450.0000000000007	0	0	0	0
3.045	-0	0	0	-300	2252	0	0	0	0	-4.144865036010742	-56.28242874145508	391.8258666992188	-300	1351	0	-93466.2421875	40157.1875	915.9278564453125	5.950351123548764	57.16788890145559	415.5843505859375	-300	450.0000000000007	0	83931.62274369116	51618.33179376777	-6531.7578125	-0	0	0	305	450.0000000000007	0	0	0	0
3.0455	-0	0	0	-300	2252	0	0	0	0	-4.158512115478516	-56.29606246948242	393.8636779785156	-300	1351	0	-93472.71875	40070.29296875	854.0399780273438	6.305162307095137	57.35119274997269	415.9334716796875	-300	450.0000000000007	0	83977.50555010878	51757.48023327337	-6543.42919921875	-0	0	0	305	450.0000000000007	0	0	0	0
3.046	-0	0	0	-300	2252	0	0	0	0	-4.549736022949219	-56.85477447509766	393.0892944335938	-300	1351	0	-93544.2421875	40077.99609375	909.738037109375	6.564595564558164	57.62658338631288	416.0948791503906	-300	450.0000000000007	0	84071.64617201961	51828.15211238839	-6512.60546875	-0	0	0	305	450.0000000000007	0	0	0	0
3.0465	-0	0	0	-300	2252	0	0	0	0	-4.501754760742188	-57.07116317749023	393.5641784667969	-300	1351	0	-93315.671875	40079.25390625	919.6536865234375	6.564595572278657	57.44995908821718	415.4643249511719	-300	450.0000000000007	0	83942.2008615621	51781.42554423015	-6648.544921875	-0	0	0	305	450.0000000000007	0	0	0	0
3.047	-0	0	0	-300	2252	0	0	0	0	-4.299367427825928	-56.37162780761719	394.4753723144531	-300	1351	0	-93422.859375	40164.12890625	990.0633544921875	6.493110058516153	57.32077817688932	414.7243347167969	-300	450.0000000000007	0	83776.86493150874	51611.06616200309	-6629.04345703125	-0	0	0	305	450.0000000000007	0	0	0	0
3.0475	-0	0	0	-300	2252	0	0	0	0	-4.103683471679688	-56.40895843505859	393.15771484375	-300	1351	0	-93442.828125	40020.19921875	947.3216552734375	6.298463223189005	57.32077816838103	415.1153869628906	-300	450.0000000000007	0	83944.62274912212	51494.08570058602	-6638.2353515625	-0	0	0	305	450.0000000000007	0	0	0	0
3.048	-0	0	0	-300	2252	0	0	0	0	-4.15161657333374	-56.7454719543457	392.3829345703125	-300	1351	0	-93475.421875	39926.12109375	939.1801147460938	6.179400321609468	57.34448650668249	414.5624389648438	-300	450.0000000000007	0	84103.27118632793	51500.81617627076	-6534.0302734375	-0	0	0	305	450.0000000000007	0	0	0	0
3.0485	-0	0	0	-300	2252	0	0	0	0	-4.2821044921875	-56.58710479736328	392.5726318359375	-300	1351	0	-93367.5625	40035.5234375	902.1837158203125	5.926323294819191	57.26689555323733	415.7459106445312	-300	450.0000000000007	0	84020.95087254714	51530.11695392243	-6640.1982421875	-0	0	0	305	450.0000000000007	0	0	0	0
3.049	-0	0	0	-300	2252	0	0	0	0	-4.306055068969727	-57.1152458190918	393.3737487792969	-300	1351	0	-93308.15625	40016.11328125	858.9714965820312	6.263821494608069	56.99762753210117	415.5840759277344	-300	450.0000000000007	0	84036.53680968277	51538.45289210371	-6543.5654296875	-0	0	0	305	450.0000000000007	0	0	0	0
3.0495	-0	0	0	-300	2252	0	0	0	0	-4.29946756362915	-57.21514129638672	393.8643798828125	-300	1351	0	-93121.7890625	39906.296875	819.6416015625	6.510534644022361	57.27339582291464	415.839599609375	-300	450.0000000000007	0	83968.23993577846	51513.38648286836	-6520.49853515625	-0	0	0	305	450.0000000000007	0	0	0	0
3.05	-0	0	0	-300	2252	0	0	0	0	-4.103683471679688	-56.90645599365234	393.1841430664062	-300	1351	0	-93251.53125	39956.9609375	752.251953125	6.121041663158096	57.09673336082101	415.5585021972656	-300	450.0000000000007	0	83861.63836724816	51651.34350945865	-6646.162109375	-0	0	0	305	450.0000000000007	0	0	0	0
3.0505	-0	0	0	-300	2252	0	0	0	0	-4.223440170288086	-56.65641784667969	393.2528076171875	-300	1351	0	-93309.3359375	39788.9609375	851.5145874023438	6.121041665700467	57.03857067161202	415.0731201171875	-300	450.0000000000007	0	83822.66961556784	51689.78491400528	-6547.78466796875	-0	0	0	305	450.0000000000007	0	0	0	0
3.051	-0	0	0	-300	2252	0	0	0	0	-4.477906227111816	-56.40217971801758	393.0204772949219	-300	1351	0	-93491.703125	40037.94921875	845.962158203125	6.097252251402863	57.23245265909754	415.7459716796875	-300	450.0000000000007	0	83825.76336973596	51594.42944539051	-6618.634765625	-0	0	0	305	450.0000000000007	0	0	0	0
3.0515	-0	0	0	-300	2252	0	0	0	0	-4.353910446166992	-56.64563751220703	393.8904113769531	-300	1351	0	-93451.90625	39791.6875	849.3549194335938	6.1274570222821	57.2798083122733	415.8648071289062	-300	450.0000000000007	0	84087.73211813366	51631.08570684153	-6551.369140625	-0	0	0	305	450.0000000000007	0	0	0	0
3.052	-0	0	0	-300	2252	0	0	0	0	-4.45402717590332	-56.7282600402832	393.9593505859375	-300	1351	0	-93272.5625	39859.265625	757.968017578125	6.363400329905623	57.50377301374882	416.5127563476562	-300	450.0000000000007	0	84131.21649861295	51505.73414624229	-6494.2939453125	-0	0	0	305	450.0000000000007	0	0	0	0
3.0525	-0	0	0	-300	2252	0	0	0	0	-4.145055770874023	-56.69340133666992	393.1583557128906	-300	1351	0	-93262.03125	39698.11328125	808.7122802734375	6.274697643023815	57.69139889488127	415.4904174804688	-300	450.0000000000007	0	84110.21649720719	51537.89430157435	-6531.79150390625	-0	0	0	305	450.0000000000007	0	0	0	0
3.053	-0	0	0	-300	2252	0	0	0	0	-4.134028911590576	-57.04988861083984	392.6669311523438	-300	1351	0	-93421.0859375	40160.25	821.9890747070312	6.185994970754601	57.54472759583794	415.5839233398438	-300	450.0000000000007	0	84097.47430863147	51562.50367601737	-6527.53466796875	-0	0	0	305	450.0000000000007	0	0	0	0
3.0535	-0	0	0	-300	2252	0	0	0	0	-4.364912986755371	-57.21532440185547	393.0639038085938	-300	1351	0	-93116.671875	40228.08203125	816.06201171875	6.216040003803748	57.53219250193641	415.5591735839844	-300	450.0000000000007	0	83916.41180534101	51637.78101185288	-6468.7158203125	-0	0	0	305	450.0000000000007	0	0	0	0
3.054	-0	0	0	-300	2252	0	0	0	0	-4.127578735351562	-56.78721237182617	391.8405151367188	-300	1351	0	-93132.234375	40065.91796875	867.1157836914062	6.499626517675369	57.26232175627572	414.7921142578125	-300	450.0000000000007	0	83892.59150401011	51382.26147956166	-6648.609375	-0	0	0	305	450.0000000000007	0	0	0	0
3.0545	-0	0	0	-300	2252	0	0	0	0	-4.336216926574707	-56.33041381835938	391.7962036132812	-300	1351	0	-93298.1640625	39890.015625	865.3539428710938	6.4933947197506	57.56211118471426	414.9789428710938	-300	450.0000000000007	0	84080.38056395436	51440.73023777018	-6589.205078125	-0	0	0	305	450.0000000000007	0	0	0	0
